<?xml version="1.0" standalone="no"?>
<!DOCTYPE svg PUBLIC "-//W3C//DTD SVG 20010904//EN"
 "http://www.w3.org/TR/2001/REC-SVG-20010904/DTD/svg10.dtd">
<svg version="1.0" xmlns="http://www.w3.org/2000/svg"
 width="115.000000pt" height="160.000000pt" viewBox="0 0 115.000000 160.000000"
 preserveAspectRatio="xMidYMid meet">

<g transform="translate(0.000000,160.000000) scale(0.100000,-0.100000)"
fill="#000000" stroke="none">
<path d="M557 1574 c-4 -4 -7 -14 -7 -23 0 -12 3 -11 13 4 9 12 16 14 21 7 8
-14 -32 -42 -61 -42 -29 0 -37 -14 -17 -31 10 -8 14 -22 10 -41 -7 -34 8 -44
38 -25 21 14 25 14 39 0 22 -22 39 -7 32 28 -5 21 -2 31 9 35 27 10 19 34 -12
34 -24 0 -28 4 -27 27 0 27 -22 42 -38 27z m61 -64 c15 -1 15 -2 -1 -14 -13
-10 -16 -21 -11 -42 7 -28 6 -28 -13 -12 -17 16 -21 16 -41 2 -22 -15 -23 -15
-16 10 3 15 1 32 -6 40 -9 12 -6 15 17 19 15 2 34 2 41 0 8 -1 21 -3 30 -3z"/>
<path d="M30 927 c0 -437 3 -464 57 -577 35 -73 159 -195 241 -238 82 -43 196
-82 242 -82 88 0 252 72 352 155 76 62 131 142 167 239 l25 71 4 418 4 417
-546 0 -546 0 0 -403z m1030 -24 c0 -219 -5 -397 -11 -422 -31 -138 -134 -258
-286 -333 -50 -26 -116 -52 -146 -58 -49 -11 -61 -10 -123 10 -195 64 -329
180 -385 332 -22 61 -23 76 -27 456 l-3 392 490 0 491 0 0 -377z"/>
<path d="M180 1105 l0 -95 35 0 c28 0 35 4 35 20 0 18 7 20 70 20 68 0 70 1
70 25 0 24 -2 25 -70 25 -68 0 -70 1 -70 25 0 25 1 25 80 25 79 0 80 0 80 25
l0 25 -115 0 -115 0 0 -95z"/>
<path d="M460 1180 c-13 -13 -20 -33 -20 -60 0 -68 22 -80 140 -80 l100 0 0
25 c0 25 -1 25 -85 25 l-85 0 0 30 0 30 85 0 c84 0 85 0 85 25 l0 25 -100 0
c-87 0 -103 -3 -120 -20z"/>
<path d="M720 1105 l0 -95 35 0 35 0 0 53 0 52 51 -52 c44 -46 56 -53 90 -53
l39 0 0 95 0 95 -35 0 -35 0 0 -52 0 -52 -53 52 c-44 44 -58 52 -90 52 l-37 0
0 -95z"/>
<path d="M450 969 c-64 -25 -77 -26 -149 -10 -29 6 -69 11 -87 11 l-34 0 0
-223 c0 -194 3 -231 19 -279 25 -73 41 -96 61 -91 11 3 22 -8 35 -36 14 -33
22 -40 37 -35 15 4 22 -3 35 -35 16 -41 16 -41 68 -41 48 0 53 -2 59 -25 6
-24 10 -25 76 -25 65 0 71 2 82 25 10 22 18 25 60 25 49 0 50 1 65 40 13 31
20 39 34 35 14 -5 23 4 39 35 13 26 27 40 37 38 20 -4 58 67 73 135 5 26 10
140 10 252 l0 205 -42 0 c-24 0 -70 -7 -102 -14 -55 -13 -62 -13 -105 6 -71
31 -201 35 -271 7z m95 -90 l28 -51 26 48 c27 50 45 61 70 45 15 -10 15 -10
-17 -73 -2 -3 32 7 74 24 43 16 102 32 131 35 l53 6 0 -53 0 -53 -20 25 c-14
19 -26 24 -45 21 -30 -6 -31 -13 -5 -46 11 -14 20 -29 20 -34 0 -5 -21 -19
-47 -32 -40 -20 -44 -24 -31 -37 13 -13 20 -12 58 5 45 20 59 16 60 -16 0 -11
-119 -79 -124 -71 -1 2 -19 24 -39 49 -20 25 -37 51 -37 57 0 7 19 21 41 33
42 21 42 21 22 41 -20 20 -20 20 -84 -12 -35 -18 -66 -34 -68 -36 -2 -2 9 -22
24 -44 15 -22 26 -42 24 -44 -2 -2 -22 -12 -43 -23 -37 -19 -43 -19 -75 -6
-62 26 -64 31 -30 74 l30 38 -69 35 c-66 33 -70 34 -86 17 -22 -24 -21 -26 24
-46 22 -10 40 -20 40 -23 0 -3 -18 -29 -41 -58 l-41 -53 -61 31 c-76 37 -71
32 -58 57 l11 21 46 -22 c38 -19 46 -20 54 -8 12 19 6 27 -41 51 -42 21 -42
26 -6 66 l20 22 -28 11 c-26 10 -31 8 -51 -17 l-23 -28 -1 53 0 52 38 0 c31 0
151 -36 215 -65 16 -6 15 -3 -4 30 -18 31 -20 38 -8 46 29 18 46 8 74 -42z
m-178 -326 c7 -18 13 -37 13 -43 0 -6 -25 -22 -55 -37 -48 -24 -57 -25 -65
-13 -17 26 -11 38 25 50 49 16 45 38 -7 42 -42 3 -43 4 -46 40 l-3 38 62 -23
c51 -18 64 -28 76 -54z m133 57 c37 -19 40 -24 40 -60 l0 -40 -48 0 c-48 0
-49 1 -62 40 -12 36 -11 42 5 60 22 24 17 24 65 0z m212 -2 c12 -19 13 -29 3
-58 -11 -33 -14 -35 -63 -38 l-52 -3 0 39 c0 35 4 40 43 59 53 27 52 27 69 1z
m198 -17 c0 -40 0 -40 -42 -43 -54 -4 -57 -19 -8 -40 38 -16 40 -18 29 -42
l-12 -25 -59 30 c-44 22 -58 34 -54 46 3 8 9 25 12 38 4 17 22 30 67 49 34 14
63 25 65 26 1 0 2 -18 2 -39z m-380 -143 c-1 -7 -9 -28 -18 -46 l-18 -32 -16
45 -17 45 34 0 c22 0 35 -5 35 -12z m144 -10 c-23 -76 -23 -76 -45 -29 -10 24
-19 45 -19 47 0 2 16 4 36 4 32 0 35 -2 28 -22z m-242 -63 c23 -64 25 -77 13
-82 -26 -9 -41 4 -54 46 -10 36 -15 41 -33 35 -19 -6 -37 8 -38 28 0 7 67 46
80 48 3 0 17 -34 32 -75z m387 12 c-7 -12 -18 -17 -30 -14 -15 4 -23 -5 -38
-39 -14 -31 -26 -44 -40 -44 -26 0 -26 11 -1 80 12 30 23 61 25 68 3 9 16 6
49 -10 39 -19 44 -24 35 -41z m-221 -94 c28 26 32 21 18 -20 -11 -31 -18 -39
-43 -41 -25 -3 -32 1 -37 22 -3 13 -9 32 -13 42 -6 16 -4 16 25 -1 29 -18 32
-18 50 -2z"/>
</g>
</svg>
