<?xml version="1.0" standalone="no"?>
<!DOCTYPE svg PUBLIC "-//W3C//DTD SVG 20010904//EN"
 "http://www.w3.org/TR/2001/REC-SVG-20010904/DTD/svg10.dtd">
<svg version="1.0" xmlns="http://www.w3.org/2000/svg"
 width="629.000000pt" height="161.000000pt" viewBox="0 0 629.000000 161.000000"
 preserveAspectRatio="xMidYMid meet">

<g transform="translate(0.000000,161.000000) scale(0.100000,-0.100000)"
fill="#000000" stroke="none">
<path d="M397 1520 c-134 -34 -220 -146 -204 -265 16 -116 79 -168 282 -235
183 -60 238 -100 250 -184 12 -79 -29 -151 -102 -182 -51 -22 -205 -18 -252 6
-62 31 -91 73 -91 132 0 42 -3 49 -16 44 -9 -3 -31 -6 -50 -6 -34 0 -34 0 -34
-47 0 -76 50 -147 135 -191 44 -23 65 -27 167 -30 90 -3 128 0 167 13 53 17
133 81 155 124 38 74 26 192 -25 254 -42 51 -95 79 -253 136 -81 29 -153 61
-174 78 -69 56 -79 149 -25 214 40 47 96 69 179 69 125 0 214 -66 214 -159 0
-32 1 -33 31 -27 17 3 41 6 52 6 18 0 19 5 14 45 -18 130 -122 205 -291 211
-50 2 -108 -1 -129 -6z"/>
<path d="M1250 1524 c-86 -16 -160 -68 -194 -136 l-26 -52 0 -285 c0 -174 4
-301 11 -325 15 -56 92 -129 158 -151 76 -25 269 -18 326 12 49 26 110 88 124
126 7 18 11 143 11 333 0 283 -1 308 -20 343 -45 88 -133 133 -270 137 -52 1
-106 0 -120 -2z m215 -93 c54 -24 92 -71 100 -124 4 -23 5 -157 3 -297 -3
-289 -7 -304 -84 -348 -35 -20 -50 -22 -146 -20 -118 3 -141 13 -185 78 -23
32 -23 39 -23 324 l0 291 24 36 c22 32 53 53 106 72 37 13 166 6 205 -12z"/>
<path d="M2937 1520 c-97 -25 -176 -95 -196 -175 -17 -66 -14 -569 3 -618 21
-57 58 -100 117 -132 50 -28 63 -30 179 -33 l125 -4 65 34 c48 25 73 46 97 81
32 48 53 132 37 146 -5 5 -28 11 -50 14 l-42 5 -4 -50 c-6 -58 -30 -95 -84
-125 -33 -19 -54 -23 -132 -23 -107 0 -155 18 -194 72 -23 32 -23 39 -26 303
-2 149 0 284 3 302 8 43 50 92 100 114 63 29 177 26 242 -7 57 -28 93 -83 93
-142 0 -35 9 -38 69 -26 25 5 31 11 31 33 0 85 -63 173 -153 211 -59 26 -213
37 -280 20z"/>
<path d="M4201 1515 c-82 -23 -137 -68 -171 -140 -18 -37 -20 -65 -20 -325 0
-174 4 -300 11 -324 15 -53 90 -126 154 -149 62 -21 241 -23 298 -3 100 36
159 105 165 197 l4 59 -36 2 c-20 0 -41 1 -47 2 -6 1 -12 -18 -14 -41 -4 -57
-35 -103 -85 -132 -37 -20 -51 -22 -144 -19 -94 3 -106 5 -139 31 -66 50 -67
54 -67 369 0 332 1 335 90 381 45 22 66 27 129 27 131 -1 212 -59 215 -155 1
-41 3 -45 26 -45 59 0 70 9 70 57 0 82 -55 154 -150 196 -60 27 -213 33 -289
12z"/>
<path d="M1890 1040 l0 -470 50 0 50 0 0 200 0 200 73 0 73 0 143 -190 c79
-104 150 -195 157 -201 7 -5 35 -9 63 -7 l51 3 -149 197 c-147 194 -149 198
-123 203 120 24 186 65 224 138 18 34 22 59 23 132 0 81 -3 95 -28 137 -15 26
-42 59 -60 72 -65 50 -102 56 -333 56 l-214 0 0 -470z m443 376 c21 -10 50
-35 65 -54 24 -32 27 -44 27 -118 0 -68 -4 -87 -21 -110 -52 -70 -96 -83 -281
-84 l-133 0 0 188 c0 104 3 192 8 196 4 4 72 6 152 4 117 -3 152 -7 183 -22z"/>
<path d="M3520 1020 l0 -40 150 0 150 0 0 40 0 40 -150 0 -150 0 0 -40z"/>
<path d="M101 306 c-7 -8 -11 -29 -9 -47 2 -27 11 -38 48 -59 37 -22 45 -31
45 -56 0 -26 -3 -29 -37 -32 -29 -3 -38 1 -43 17 -3 12 -11 21 -16 21 -13 0
-11 -12 7 -38 20 -28 74 -30 98 -3 30 33 17 71 -33 100 -55 33 -70 54 -52 75
20 23 68 21 76 -4 7 -23 25 -27 25 -7 0 39 -84 64 -109 33z"/>
<path d="M1002 308 c-16 -16 -16 -190 0 -206 17 -17 74 -15 92 4 25 24 23 175
-2 197 -22 20 -73 22 -90 5z m83 -103 l0 -90 -28 -3 c-46 -6 -57 12 -57 92 0
81 10 98 55 94 l30 -3 0 -90z"/>
<path d="M1360 205 c0 -79 3 -114 11 -110 6 4 9 31 7 63 -3 63 4 82 31 82 29
0 40 -21 44 -90 l3 -65 2 77 c2 84 -2 92 -53 90 -29 -1 -31 1 -27 27 2 16 -1
32 -7 35 -8 5 -11 -27 -11 -109z"/>
<path d="M2030 284 c0 -33 -2 -36 -23 -30 -14 3 -33 -1 -45 -10 -18 -12 -22
-25 -22 -65 0 -75 12 -90 66 -87 l44 3 0 113 c0 68 -4 112 -10 112 -5 0 -10
-16 -10 -36z m-5 -108 c0 -44 -4 -61 -17 -69 -29 -19 -48 8 -48 68 0 59 5 67
40 63 24 -3 25 -6 25 -62z"/>
<path d="M2090 311 c0 -6 5 -13 10 -16 6 -3 10 1 10 9 0 9 -4 16 -10 16 -5 0
-10 -4 -10 -9z"/>
<path d="M2422 203 c1 -81 3 -102 7 -68 8 67 28 69 66 5 16 -28 33 -50 37 -50
14 0 9 14 -19 55 -17 25 -22 40 -15 43 43 14 57 85 24 115 -11 10 -36 17 -60
17 l-42 0 2 -117z m93 52 c0 -40 0 -40 -42 -43 l-43 -3 0 46 0 46 43 -3 c42
-3 42 -3 42 -43z"/>
<path d="M3413 205 c1 -94 2 -105 6 -51 6 72 22 96 55 83 13 -5 16 -21 16 -77
0 -40 4 -70 10 -70 6 0 10 30 10 69 0 60 -3 72 -22 85 -12 9 -31 13 -44 10
-20 -5 -23 -2 -27 33 -2 21 -4 -16 -4 -82z"/>
<path d="M3672 308 c-16 -16 -16 -190 0 -206 29 -29 108 -2 108 36 0 20 -17
13 -23 -8 -6 -23 -55 -28 -75 -8 -16 16 -16 150 0 166 20 20 66 15 73 -8 7
-23 25 -27 25 -7 0 38 -80 63 -108 35z"/>
<path d="M4737 302 c-25 -28 -24 -172 1 -195 29 -26 78 -22 98 8 21 32 9 47
-12 16 -12 -16 -24 -21 -47 -19 l-32 3 0 90 0 90 35 0 c26 0 37 -6 46 -23 8
-15 14 -20 19 -12 4 6 -1 22 -9 35 -20 31 -75 34 -99 7z"/>
<path d="M5470 205 c0 -70 4 -115 10 -115 6 0 10 30 10 70 0 56 3 72 16 77 33
13 49 -11 55 -83 l5 -69 2 77 c2 83 -3 91 -49 90 -26 -1 -29 2 -29 34 0 19 -4
34 -10 34 -6 0 -10 -45 -10 -115z"/>
<path d="M650 271 c0 -11 -8 -22 -17 -24 -17 -4 -17 -5 0 -6 14 -1 17 -11 17
-65 0 -68 14 -92 47 -83 16 4 15 6 -4 12 -21 7 -23 14 -23 70 0 58 2 64 23 68
l22 4 -22 2 c-16 1 -23 7 -23 21 0 11 -4 20 -10 20 -5 0 -10 -9 -10 -19z"/>
<path d="M1260 271 c0 -11 -8 -22 -17 -24 -17 -4 -17 -5 0 -6 14 -1 17 -11 17
-60 0 -61 15 -91 46 -91 21 0 17 17 -6 23 -17 4 -20 14 -20 65 0 55 2 61 23
65 l22 4 -22 2 c-16 1 -23 7 -23 21 0 11 -4 20 -10 20 -5 0 -10 -9 -10 -19z"/>
<path d="M4130 270 c0 -12 -7 -20 -17 -20 -17 -1 -17 -1 0 -11 13 -8 17 -23
17 -68 0 -63 15 -86 47 -78 16 4 15 6 -4 12 -13 4 -23 10 -24 14 0 3 -1 31 -2
61 -1 50 1 55 23 61 l25 6 -25 4 c-17 3 -24 9 -22 22 2 9 -2 17 -8 17 -5 0
-10 -9 -10 -20z"/>
<path d="M285 251 c-11 -5 -23 -7 -27 -4 -5 2 -8 -46 -8 -106 0 -67 4 -111 10
-111 6 0 10 15 10 34 0 30 2 33 25 28 41 -7 55 13 55 84 0 52 -3 65 -19 74
-22 11 -19 11 -46 1z m43 -23 c17 -17 15 -103 -3 -118 -8 -6 -23 -9 -35 -5
-17 5 -20 15 -20 64 0 32 3 61 7 64 10 11 38 8 51 -5z"/>
<path d="M410 240 c-25 -25 -27 -95 -4 -128 17 -24 62 -30 82 -10 7 7 12 38
12 69 0 48 -4 60 -22 73 -30 21 -44 20 -68 -4z m68 -67 c3 -55 1 -62 -18 -68
-33 -10 -50 12 -50 64 0 52 14 73 45 69 17 -3 20 -12 23 -65z"/>
<path d="M577 249 c-9 -6 -22 -7 -27 -4 -6 4 -10 -24 -10 -74 0 -98 18 -109
22 -14 3 59 6 69 26 79 13 6 20 14 15 17 -5 3 -16 1 -26 -4z"/>
<path d="M772 249 c-38 -15 -26 -59 23 -85 48 -24 52 -48 10 -52 -19 -3 -33 2
-42 14 -10 14 -13 15 -13 3 0 -23 21 -39 50 -39 32 0 50 17 50 48 0 18 -9 27
-40 40 -32 12 -40 20 -38 36 4 26 45 35 54 12 6 -16 24 -22 24 -8 -1 28 -43
45 -78 31z"/>
<path d="M1190 250 c-7 -4 -18 -6 -24 -4 -8 3 -10 -21 -6 -78 l4 -83 6 70 c4
60 8 71 28 81 13 7 20 14 15 17 -5 3 -15 2 -23 -3z"/>
<path d="M1520 240 c-27 -27 -28 -110 -2 -133 22 -20 63 -22 80 -5 7 7 12 38
12 69 0 48 -4 60 -22 73 -30 21 -44 20 -68 -4z m68 -67 c3 -55 1 -62 -18 -68
-32 -10 -50 12 -50 60 0 62 8 77 39 73 25 -3 26 -6 29 -65z"/>
<path d="M1685 249 c-4 -6 -13 -8 -21 -5 -11 4 -14 -14 -14 -104 0 -67 4 -110
10 -110 6 0 10 15 10 34 0 30 2 33 25 28 41 -7 55 13 55 84 0 52 -3 65 -19 74
-25 13 -38 13 -46 -1z m53 -70 c3 -62 -12 -85 -48 -74 -17 5 -20 15 -20 64 0
66 4 73 40 69 23 -3 25 -7 28 -59z"/>
<path d="M1818 249 c-14 -8 -18 -24 -18 -72 0 -36 5 -68 12 -75 15 -15 61 -15
76 0 15 15 16 38 2 38 -5 0 -10 -7 -10 -15 0 -21 -56 -20 -64 1 -14 36 -7 44
39 44 43 0 45 1 45 29 0 20 -8 35 -22 45 -26 18 -36 19 -60 5z m62 -24 c19
-23 4 -45 -30 -45 -18 0 -33 6 -36 15 -8 19 13 45 36 45 10 0 23 -7 30 -15z"/>
<path d="M2602 244 c-18 -12 -22 -25 -22 -65 0 -66 13 -89 50 -89 28 0 60 22
60 41 0 15 -17 10 -24 -7 -4 -10 -15 -14 -33 -12 -22 2 -29 9 -31 31 -3 26 -2
27 42 27 42 0 46 2 46 25 0 26 -31 65 -53 65 -7 0 -23 -7 -35 -16z m66 -36 c3
-26 1 -28 -32 -28 -31 0 -36 3 -36 23 0 31 9 39 40 35 19 -2 26 -10 28 -30z"/>
<path d="M2750 243 c-32 -22 -22 -53 25 -77 47 -25 52 -50 12 -54 -19 -2 -33
3 -43 15 -11 15 -13 15 -14 2 0 -38 64 -54 94 -23 26 26 15 50 -36 73 -21 10
-33 23 -33 36 0 27 32 31 57 8 20 -17 20 -17 17 1 -5 27 -52 38 -79 19z"/>
<path d="M2898 249 c-14 -8 -18 -24 -18 -72 0 -36 5 -68 12 -75 15 -15 61 -15
76 0 15 15 16 38 2 38 -5 0 -10 -7 -10 -16 0 -11 -8 -14 -32 -12 -28 2 -34 8
-36 31 -3 26 -2 27 42 27 44 0 46 1 46 29 0 20 -8 35 -22 45 -26 18 -36 19
-60 5z m60 -41 c3 -25 0 -28 -28 -28 -32 0 -47 18 -36 46 4 10 15 14 33 12 22
-2 29 -9 31 -30z"/>
<path d="M3037 240 c-12 -10 -18 -22 -14 -27 5 -4 13 0 18 10 12 20 40 22 57
5 19 -19 14 -38 -11 -38 -33 0 -67 -28 -67 -54 0 -33 22 -47 69 -44 l41 3 0
61 c0 33 -6 67 -12 76 -20 25 -56 28 -81 8z m73 -94 c0 -13 -7 -29 -15 -36
-21 -17 -55 -3 -55 24 0 30 7 36 42 36 23 0 28 -4 28 -24z"/>
<path d="M3200 251 c-8 -6 -18 -7 -22 -5 -4 3 -7 -32 -6 -78 1 -53 3 -65 5
-33 5 74 11 93 33 100 11 3 20 11 20 16 0 11 -11 11 -30 0z"/>
<path d="M3280 243 c-16 -11 -20 -25 -20 -72 0 -63 11 -81 50 -81 29 0 50 17
50 39 -1 13 -2 13 -11 -1 -6 -11 -22 -18 -40 -18 l-30 0 3 63 c3 55 5 62 25
65 12 2 27 -5 35 -17 17 -24 32 -17 18 9 -13 24 -55 30 -80 13z"/>
<path d="M3842 244 c-18 -13 -22 -25 -22 -73 0 -63 11 -81 50 -81 29 0 50 17
50 39 -1 13 -2 13 -11 -1 -6 -11 -22 -18 -39 -18 -27 0 -30 3 -30 30 0 28 2
30 40 30 39 0 40 1 40 35 0 24 -6 37 -19 45 -26 13 -33 13 -59 -6z m66 -36 c3
-26 1 -28 -32 -28 -31 0 -36 3 -36 23 0 31 9 39 40 35 19 -2 26 -10 28 -30z"/>
<path d="M4005 250 c-11 -4 -26 -5 -32 -3 -10 4 -13 -15 -13 -76 0 -97 18
-109 22 -15 3 70 18 94 52 81 13 -5 16 -21 16 -77 0 -42 4 -70 10 -70 7 0 10
27 8 71 -2 59 -7 74 -23 84 -12 8 -28 10 -40 5z"/>
<path d="M4240 240 c-25 -25 -28 -111 -4 -134 23 -23 71 -20 84 5 15 26 4 38
-13 15 -20 -28 -61 -17 -65 17 -3 26 -2 27 42 27 44 0 46 1 46 29 0 20 -8 35
-22 45 -30 21 -44 20 -68 -4z m68 -32 c3 -26 1 -28 -32 -28 -31 0 -36 3 -36
23 0 31 9 39 40 35 19 -2 26 -10 28 -30z"/>
<path d="M4405 250 c-11 -4 -23 -6 -27 -3 -5 2 -8 -32 -8 -76 0 -47 4 -81 10
-81 6 0 10 30 10 69 0 66 1 70 27 78 15 5 23 12 18 15 -6 3 -19 2 -30 -2z"/>
<path d="M4908 249 c-14 -8 -18 -24 -18 -72 0 -69 10 -87 50 -87 39 0 50 18
50 81 0 48 -4 60 -22 73 -26 18 -36 19 -60 5z m60 -21 c15 -15 16 -82 2 -109
-12 -21 -40 -25 -58 -7 -13 13 -16 85 -6 112 7 19 45 21 62 4z"/>
<path d="M5065 249 c-4 -6 -13 -8 -21 -5 -11 4 -14 -14 -14 -104 0 -67 4 -110
10 -110 6 0 10 15 10 33 0 32 2 33 32 29 41 -6 58 17 58 80 0 35 -6 54 -20 68
-22 22 -45 26 -55 9z m53 -75 c3 -66 -8 -82 -49 -69 -16 5 -19 17 -19 64 0 66
4 73 40 69 23 -3 25 -7 28 -64z"/>
<path d="M5210 253 c-24 -10 -30 -25 -30 -84 0 -61 11 -79 50 -79 29 0 50 17
50 39 -1 14 -3 13 -14 -1 -16 -22 -62 -23 -70 -2 -14 36 -7 44 39 44 45 0 45
0 45 35 0 44 -29 63 -70 48z m48 -25 c7 -7 12 -20 12 -30 0 -14 -8 -18 -35
-18 -39 0 -55 21 -35 45 15 18 42 19 58 3z"/>
<path d="M5365 250 c-11 -4 -26 -5 -32 -3 -10 4 -13 -15 -13 -76 0 -97 18
-109 22 -15 3 70 18 94 52 81 13 -5 16 -21 16 -77 0 -42 4 -70 10 -70 7 0 10
27 8 71 -2 59 -7 74 -23 84 -12 8 -28 10 -40 5z"/>
<path d="M5648 253 c-17 -4 -32 -32 -23 -41 3 -3 11 2 18 12 17 23 51 17 55
-10 2 -16 -5 -22 -35 -30 -31 -7 -39 -14 -41 -37 -5 -41 14 -58 59 -55 l39 3
0 67 c0 58 -3 69 -22 82 -12 9 -25 15 -28 15 -3 -1 -12 -3 -22 -6z m62 -108
c0 -35 -43 -56 -66 -33 -27 26 -9 58 32 58 30 0 34 -3 34 -25z"/>
<path d="M5783 245 c-19 -13 -22 -23 -19 -70 1 -30 6 -58 9 -61 4 -4 4 -18 1
-31 -8 -30 11 -53 45 -53 72 0 67 78 -6 83 -39 3 -37 31 2 35 42 5 55 19 55
62 0 22 -5 37 -12 38 -7 0 -22 3 -33 7 -11 3 -30 -1 -42 -10z m67 -20 c25 -30
-11 -72 -51 -60 -19 6 -27 54 -12 68 12 12 50 7 63 -8z m-5 -155 c0 -30 -35
-40 -55 -15 -10 12 -10 18 0 30 20 25 55 15 55 -15z"/>
<path d="M5940 253 c-24 -10 -30 -25 -30 -84 0 -61 11 -79 50 -79 29 0 50 17
50 39 -1 14 -3 13 -14 -1 -21 -28 -63 -23 -68 7 -7 32 -2 35 44 35 37 0 38 1
38 35 0 44 -29 63 -70 48z m55 -33 c9 -29 -2 -40 -41 -40 -26 0 -34 4 -34 18
0 41 63 60 75 22z"/>
<path d="M6095 250 c-11 -4 -26 -5 -32 -3 -10 4 -13 -15 -13 -76 0 -97 18
-109 22 -15 3 70 18 94 52 81 13 -5 16 -21 16 -77 0 -42 4 -70 10 -70 7 0 10
27 8 71 -2 59 -7 74 -23 84 -12 8 -28 10 -40 5z"/>
<path d="M2097 174 c2 -103 13 -108 13 -6 0 45 -3 82 -7 82 -5 0 -7 -34 -6
-76z"/>
<path d="M2172 238 c-7 -7 -12 -37 -12 -68 0 -63 11 -80 51 -80 27 0 66 37 53
49 -3 3 -10 -2 -15 -12 -6 -10 -22 -17 -40 -17 l-30 0 3 63 c3 55 5 62 25 65
12 2 27 -5 35 -17 18 -25 31 -16 17 10 -11 22 -68 26 -87 7z"/>
<path d="M4550 200 c0 -5 14 -10 30 -10 17 0 30 5 30 10 0 6 -13 10 -30 10
-16 0 -30 -4 -30 -10z"/>
</g>
</svg>
